<svg width="24" height="26" viewBox="0 0 24 26" fill="none" xmlns="http://www.w3.org/2000/svg">
<path d="M21 12V6C21 4.9 20.1 4 19 4H3C1.9 4 1.01 4.9 1.01 6L1 18C1 19.1 1.9 20 3 20H14V15C14 13.34 15.34 12 17 12H21ZM11.53 12.67C11.21 12.87 10.79 12.87 10.47 12.67L3.4 8.25C3.29973 8.19371 3.21192 8.11766 3.14189 8.02645C3.07186 7.93525 3.02106 7.83078 2.99258 7.71937C2.96409 7.60796 2.9585 7.49194 2.97616 7.37831C2.99381 7.26468 3.03434 7.15581 3.09528 7.0583C3.15623 6.96079 3.23632 6.87666 3.33073 6.811C3.42513 6.74533 3.53187 6.69951 3.6445 6.6763C3.75712 6.65309 3.87328 6.65297 3.98595 6.67595C4.09863 6.69893 4.20546 6.74453 4.3 6.81L11 11L17.7 6.81C17.7945 6.74453 17.9014 6.69893 18.014 6.67595C18.1267 6.65297 18.2429 6.65309 18.3555 6.6763C18.4681 6.69951 18.5749 6.74533 18.6693 6.811C18.7637 6.87666 18.8438 6.96079 18.9047 7.0583C18.9657 7.15581 19.0062 7.26468 19.0238 7.37831C19.0415 7.49194 19.0359 7.60796 19.0074 7.71937C18.9789 7.83078 18.9281 7.93525 18.8581 8.02645C18.7881 8.11766 18.7003 8.19371 18.6 8.25L11.53 12.67Z" fill="white"/>
<path d="M22 16C21.45 16 21 16.45 21 17V20C21 21.1 20.1 22 19 22C17.9 22 17 21.1 17 20V15.5C17 15.22 17.22 15 17.5 15C17.78 15 18 15.22 18 15.5V19C18 19.55 18.45 20 19 20C19.55 20 20 19.55 20 19V15.5C20 14.837 19.7366 14.2011 19.2678 13.7322C18.7989 13.2634 18.163 13 17.5 13C16.837 13 16.2011 13.2634 15.7322 13.7322C15.2634 14.2011 15 14.837 15 15.5V20C15 22.21 16.79 24 19 24C21.21 24 23 22.21 23 20V17C23 16.45 22.55 16 22 16Z" fill="white"/>
</svg>
