<svg width="42" height="42" viewBox="0 0 42 42" fill="none" xmlns="http://www.w3.org/2000/svg">
<path d="M42 21C42 9.40202 32.598 0 21 0C9.40202 0 0 9.40202 0 21C0 32.598 9.40202 42 21 42C32.598 42 42 32.598 42 21Z" fill="#363E58"/>
<path d="M6.38013 36.0943C6.54078 36.2499 6.7002 36.4067 6.86577 36.5572C7.11415 36.7828 7.36802 37.0026 7.62711 37.2162C7.8862 37.4299 8.15054 37.6374 8.41991 37.8386C8.68927 38.0398 8.96361 38.2346 9.24283 38.423C9.52204 38.6113 9.80611 38.7931 10.0947 38.9681C10.3834 39.1431 10.6765 39.3114 10.9741 39.4727C11.2717 39.6339 11.5738 39.7882 11.8799 39.9353C12.1861 40.0824 12.4964 40.2223 12.8106 40.3548C13.1249 40.4873 13.4431 40.6123 13.7651 40.7297C14.087 40.8472 14.4127 40.957 14.7419 41.059C15.0711 41.1609 15.4038 41.255 15.7398 41.3411C16.0758 41.4271 16.4151 41.5051 16.7574 41.5748C17.0998 41.6445 17.4453 41.706 17.7936 41.7589C18.0327 41.7953 18.275 41.822 18.5168 41.8502C18.9711 40.6493 19.3505 39.42 19.6452 38.1702C20.0177 36.5898 20.2602 34.9788 20.3693 33.3587L20.8115 32.926C19.9441 35.667 19.9639 38.6813 20.867 41.4107C20.9324 41.6082 21.0034 41.8038 21.0778 41.998C21.415 41.9968 21.7507 41.9896 22.0838 41.9728C22.4427 41.9547 22.7992 41.9276 23.153 41.8919C23.5069 41.8562 23.8581 41.8118 24.2064 41.7589C24.5548 41.706 24.9002 41.6445 25.2426 41.5748C25.585 41.5051 25.9242 41.4271 26.2602 41.3411C26.5962 41.255 26.9289 41.1609 27.2581 41.059C27.5873 40.957 27.913 40.8472 28.2349 40.7297C28.5569 40.6123 28.875 40.4873 29.1893 40.3548C29.5036 40.2223 29.8139 40.0824 30.12 39.9353C30.4262 39.7882 30.7282 39.6339 31.0258 39.4727C31.3234 39.3114 31.6166 39.1431 31.9053 38.9681C32.1939 38.7931 32.4779 38.6113 32.7571 38.423C33.0363 38.2346 33.3107 38.0398 33.5801 37.8386C33.8495 37.6374 34.1138 37.4299 34.3729 37.2162C34.632 37.0026 34.8859 36.7828 35.1342 36.5572C35.2559 36.4467 35.372 36.3305 35.491 36.2172C35.1708 34.6933 34.5985 33.1999 33.552 32.0574C32.4615 30.8669 30.9587 30.1576 29.5194 29.4262C28.1612 28.7361 26.8256 28.0015 25.5154 27.2241L16.1432 27.5855C14.1833 28.1023 12.3132 28.9575 10.6403 30.1019C9.63952 30.7866 8.70037 31.5834 7.98574 32.563C7.21482 33.6198 6.74383 34.8326 6.38013 36.0943Z" fill="#F9FFFF"/>
<path d="M17.2824 25.0893C17.4042 25.4862 17.4346 25.9109 17.3704 26.3212C17.3046 26.7423 17.1391 27.1475 16.8914 27.4944C17.2146 28.1462 17.557 28.7886 17.9179 29.4204C18.2197 29.9486 18.5537 30.4895 19.0716 30.8087C19.502 31.074 20.0295 31.1656 20.4305 31.4735C20.7903 31.7497 21.0158 32.1933 21.0269 32.6467C21.2454 32.3384 21.484 32.0442 21.7406 31.7668C22.325 31.1351 23.0043 30.5884 23.52 29.8995C23.9779 29.2876 24.2958 28.5735 24.4585 27.8268C24.6578 26.9124 24.6239 25.9482 24.3608 25.0502L17.2824 25.0893Z" fill="#C3C3C3"/>
<path d="M15.932 20.7276C15.9562 21.4029 16.0491 22.0758 16.2085 22.7324C16.4843 23.8679 16.98 24.9823 17.8262 25.7881C18.4337 26.3665 19.2101 26.7667 20.0348 26.92C20.8596 27.0733 21.7297 26.9784 22.4996 26.6453C23.4465 26.2357 24.2218 25.4777 24.7394 24.5852C25.1694 23.8439 25.4313 23.0059 25.4999 22.1517C25.6425 22.2289 25.8133 22.2528 25.9716 22.2176C26.1299 22.1824 26.2744 22.0885 26.371 21.9582C26.4923 21.7944 26.5342 21.5744 26.4816 21.3775C26.8011 20.9606 27.0334 20.4771 27.1591 19.9671C27.2135 19.7463 27.2483 19.5191 27.2393 19.2918C27.2304 19.0646 27.1763 18.8366 27.0623 18.6398C26.9682 18.4775 26.8341 18.3386 26.6751 18.2389C26.9028 17.5878 26.9211 16.8654 26.7267 16.2036C26.5324 15.5419 26.1264 14.9441 25.5829 14.5195C25.0656 14.1155 24.4394 13.8729 23.8044 13.7067C23.1694 13.5404 22.5181 13.4452 21.8774 13.3028C20.8336 13.0708 19.7912 12.7107 18.725 12.7912C18.0893 12.8392 17.4594 13.0511 16.9552 13.4411C16.3733 13.891 15.9767 14.5772 15.8905 15.3076C15.7912 16.1493 16.0891 16.9906 16.0703 17.8379C16.0663 18.0177 16.0467 18.2018 15.9669 18.3631C15.9271 18.4437 15.8722 18.5175 15.8025 18.5744C15.7329 18.6313 15.648 18.6707 15.5587 18.6813C15.4503 18.6942 15.3374 18.6633 15.2507 18.597C15.164 18.5307 15.1045 18.4298 15.0886 18.3218C14.9827 18.3364 14.8812 18.3809 14.7987 18.4488C14.7163 18.5168 14.6531 18.6079 14.6185 18.709C14.5636 18.8691 14.5814 19.0464 14.6303 19.2085C14.6793 19.3705 14.7578 19.5218 14.8259 19.6768C15.0026 20.0788 15.1106 20.5109 15.1439 20.9488C15.0423 21.0528 14.9782 21.1926 14.9658 21.3374C14.9533 21.4822 14.9925 21.631 15.0748 21.7508C15.166 21.8836 15.3096 21.9794 15.4674 22.0124C15.6251 22.0455 15.7951 22.0155 15.932 21.9305V20.7276Z" fill="#F2F2F2"/>
<path d="M18.2952 9.59165C17.975 9.59324 17.6542 9.66105 17.3564 9.78036C16.9232 9.9539 16.5368 10.2328 16.207 10.563C15.5474 11.2234 15.118 12.0726 14.6816 12.8977C14.4731 13.2918 14.2601 13.6849 14.0968 14.0997C13.9336 14.5146 13.8213 14.9546 13.8213 15.4005C13.8213 15.9132 13.9729 16.4157 14.1782 16.8856C14.3834 17.3554 14.6432 17.799 14.8771 18.2553C15.3514 19.1806 15.7197 20.1602 15.9722 21.1688C15.9139 20.4529 15.927 19.7312 16.0113 19.0179C16.0888 18.362 16.2264 17.713 16.4219 17.0821C16.3585 16.4706 16.4756 15.8415 16.7546 15.2937C17.0337 14.7459 17.4738 14.2814 18.0057 13.9731C18.5297 13.6695 19.1409 13.5183 19.7459 13.5429C19.843 13.7142 19.9538 13.8776 20.0758 14.0321L20.0792 14.0369C20.0792 14.0369 20.0792 14.0369 20.0792 14.037C20.0832 14.042 20.0873 14.047 20.0912 14.052C20.6959 14.8971 21.4068 15.6662 22.203 16.3339C23.3499 17.2957 24.673 18.0467 26.0868 18.5383C26.0987 18.6626 26.1019 18.7876 26.0963 18.9124C26.2513 18.7192 26.4673 18.5751 26.7063 18.5095C26.9326 18.4474 27.178 18.4524 27.3906 18.3531C27.5243 18.2906 27.6388 18.1879 27.7154 18.0618C27.792 17.9357 27.8302 17.7867 27.824 17.6394C27.8178 17.492 27.7671 17.3468 27.6801 17.2276C27.5932 17.1084 27.4705 17.0158 27.332 16.9648C27.3976 16.9667 27.463 16.9732 27.5276 16.9843C27.854 17.0404 28.1582 17.2173 28.3684 17.4732C28.2519 17.3262 28.159 17.1605 28.0946 16.9843C27.9738 16.6544 27.9547 16.2962 27.9641 15.9451C27.9735 15.5939 28.0105 15.2431 27.9969 14.8921C27.9581 13.8883 27.4864 12.9086 26.7259 12.2524L27.1756 12.4674C26.7569 11.9819 26.3059 11.5243 25.8264 11.0988C25.1244 10.4757 24.3343 9.90861 23.4213 9.69088C22.2633 9.4147 20.9751 9.76535 20.1168 10.5904H20.1167C19.8109 10.0996 19.2957 9.74403 18.7284 9.63221C18.5853 9.60401 18.4399 9.59096 18.2943 9.59164L18.2952 9.59165ZM26.0971 18.9124C26.0655 18.9517 26.0363 18.993 26.0101 19.0361C25.8556 19.2913 25.803 19.6063 25.8663 19.8978C26.0046 19.5879 26.0823 19.2514 26.0971 18.9124Z" fill="#363E58"/>
<path d="M17.3574 25.3957C16.9061 25.6166 16.5117 25.9524 16.2215 26.3626C15.7235 27.0666 15.5502 27.9497 15.4887 28.8099C15.4217 29.7469 15.473 30.6923 15.6408 31.6166C15.678 31.2687 15.8193 30.9326 16.0418 30.6626C16.4091 30.2169 17.0008 29.9663 17.5765 30.0128L17.4106 29.6671C17.5578 30.1415 17.884 30.558 18.3093 30.8147C18.6379 31.013 19.0166 31.116 19.3463 31.3124C19.6922 31.5185 19.9764 31.8266 20.1539 32.188C20.3314 32.5494 20.4015 32.9627 20.3531 33.3624L21.0277 32.59C20.7457 31.6414 20.3079 30.7393 19.7372 29.9307C19.2913 29.299 18.7655 28.7246 18.3489 28.0731C17.8321 27.2652 17.4915 26.3453 17.3574 25.3957Z" fill="#363E58"/>
<path d="M24.3375 25.1459C25.0247 25.6333 25.5652 26.3247 25.8723 27.1092C26.0048 27.4479 26.0944 27.8016 26.2068 28.1474C26.3192 28.4933 26.4572 28.8361 26.6742 29.1279C26.7815 29.2721 26.9073 29.4026 27.0475 29.515C26.9917 29.9319 26.7485 30.32 26.3977 30.552C26.1123 30.7407 25.76 30.8259 25.42 30.7884C25.0799 30.7509 24.7546 30.591 24.5173 30.3446C24.6168 30.7877 24.5071 31.2731 24.2269 31.6305C23.9332 32.0051 23.4818 32.2233 23.0258 32.3602C22.5699 32.4971 22.0952 32.5652 21.6414 32.7089C21.1854 32.8534 20.7536 33.0739 20.3694 33.3588L21.5861 31.1742L24.3375 25.1459Z" fill="#363E58"/>
<path d="M21.6989 24.0869C21.5477 24.2293 21.3487 24.3248 21.143 24.3532C20.9745 24.3764 20.7984 24.3558 20.6398 24.2946C20.6179 24.2861 20.5945 24.282 20.5711 24.2826C20.5476 24.2832 20.5245 24.2883 20.5031 24.2978C20.4816 24.3073 20.4622 24.321 20.4461 24.338C20.4299 24.355 20.4172 24.375 20.4088 24.3969C20.3918 24.4411 20.393 24.4902 20.4122 24.5334C20.4314 24.5767 20.4669 24.6105 20.5111 24.6276C20.727 24.7109 20.9624 24.7383 21.1916 24.7066C21.4725 24.6679 21.7374 24.5412 21.9438 24.3467C21.9609 24.3306 21.9746 24.3113 21.9842 24.2899C21.9938 24.2685 21.9991 24.2455 21.9998 24.222C22.0005 24.1986 21.9966 24.1752 21.9882 24.1533C21.9799 24.1314 21.9673 24.1114 21.9512 24.0943C21.9352 24.0772 21.9159 24.0635 21.8945 24.0539C21.8731 24.0443 21.85 24.039 21.8266 24.0383C21.8032 24.0376 21.7798 24.0415 21.7579 24.0499C21.736 24.0582 21.7159 24.0708 21.6989 24.0869Z" fill="black"/>
<path d="M17.6637 26.6597C18.0231 26.9954 18.4364 27.2735 18.8828 27.4799C19.6073 27.815 20.4193 27.9585 21.2148 27.892C22.0102 27.8256 22.7872 27.5494 23.4461 27.0989C23.5489 26.8737 23.6517 26.6485 23.7545 26.4233C23.8958 26.1136 24.0372 25.8039 24.1785 25.4942C24.2315 25.3781 24.2845 25.262 24.3375 25.1459C24.0816 25.509 23.7704 25.8331 23.4179 26.1034C22.9453 26.4659 22.3979 26.7313 21.8193 26.8721C21.374 26.9805 20.9111 27.0153 20.4545 26.9764C20.1692 26.9521 19.8864 26.8992 19.6117 26.8186C19.3121 26.7308 19.0223 26.61 18.7485 26.4602C18.4648 26.3051 18.1982 26.1188 17.955 25.9058C17.7208 25.7007 17.5083 25.4708 17.3223 25.2211C17.3416 25.341 17.3624 25.4605 17.3849 25.5798C17.429 25.8137 17.4792 26.0467 17.543 26.276C17.579 26.4052 17.6192 26.5332 17.6637 26.6597Z" fill="#B0B0B0"/>
</svg>
